<?xml version="1.0" standalone="no"?>
<!DOCTYPE svg PUBLIC "-//W3C//DTD SVG 1.1//EN" "http://www.w3.org/Graphics/SVG/1.1/DTD/svg11.dtd" >
<svg>
<metadata>
Created by FontForge 20120731 at Wed Aug  3 21:55:35 2016
 By www
Digitized data (C) 2004 Agfa Monotype Corporation. Neo Tech(TM) is a trademark of Agfa Monotype Corporation and may be registered in certain jurisdictions.  All rights reserved. Neo Tech is designed by Sebastian Lester.
</metadata>
<defs>
<font id="NeoTech" horiz-adv-x="605" >
  <font-face 
    font-family="NeoTech"
    font-weight="400"
    font-stretch="normal"
    units-per-em="1000"
    panose-1="2 0 5 6 2 0 0 2 0 4"
    ascent="800"
    descent="-200"
    x-height="550"
    cap-height="743"
    bbox="-31 -216 1089 853"
    underline-thickness="50"
    underline-position="-50"
    unicode-range="U+0020-2122"
  />
<missing-glyph horiz-adv-x="500" 
 />
    <glyph glyph-name=".notdef" horiz-adv-x="500" 
 />
    <glyph glyph-name="space" unicode=" " horiz-adv-x="273" 
 />
    <glyph glyph-name="exclam" unicode="!" horiz-adv-x="217" 
d="M146 213q0 -19 -19 -19h-36q-20 0 -20 19l-7 520q0 19 20 19h50q20 0 20 -19zM152 19q0 -19 -19 -19h-48q-19 0 -19 19v94q0 19 19 19h48q19 0 19 -19v-94z" />
    <glyph glyph-name="dollar" unicode="$" 
d="M491 71q-47 -60 -146 -74v-94q0 -20 -20 -20h-47q-20 0 -20 20v90q-41 1 -79 5q-31 3 -64 9q-19 3 -19 18v41q0 16 17 16h3q41 -4 83 -6q51 -3 82 -3q84 0 121 34q31 28 31 86q0 60 -120 134l-97 59q-138 84 -138 187q0 152 180 174v86q0 20 20 20h47q20 0 20 -20v-83
q80 -3 146 -13q17 -3 17 -17v-43q0 -16 -17 -16l-83 6q-54 3 -91 3q-147 0 -147 -97q0 -55 109 -121l92 -55q157 -93 157 -204q0 -74 -37 -122z" />
    <glyph glyph-name="percent" unicode="%" horiz-adv-x="794" 
d="M749 155q0 -162 -134 -162q-135 0 -135 162v93q0 162 135 162q134 0 134 -162v-93zM645 724l-418 -708q-11 -20 -22 -20h-49q-10 0 -10 8q0 7 4 12l418 708q11 19 23 19h51q8 0 8 -6q0 -3 -5 -13zM314 496q0 -162 -134 -162q-135 0 -135 162v93q0 161 135 161
q134 0 134 -161v-93zM687 248q0 105 -72 105q-73 0 -73 -105v-93q0 -105 73 -105q72 0 72 105v93zM252 589q0 105 -72 105q-73 0 -73 -105v-93q0 -105 73 -105q72 0 72 105v93z" />
    <glyph glyph-name="ampersand" unicode="&#x26;" horiz-adv-x="636" 
d="M618 356q0 -17 -19 -17h-91v-319q0 -17 -15 -19q-103 -8 -194 -8q-110 0 -175 52q-75 60 -75 180q0 93 61 154q-60 70 -60 160q0 117 69 168q59 43 180 43q78 0 133 -5q42 -5 64 -11q12 -3 12 -13v-42q0 -14 -15 -14h-194q-92 0 -123 -22q-36 -25 -36 -104q0 -71 41 -123
h418q19 0 19 -18v-42zM422 339h-241q-41 -51 -41 -114q0 -81 47 -117q38 -31 112 -31h123v262z" />
    <glyph glyph-name="quoteright" unicode="&#x2019;" horiz-adv-x="186" 
d="M156 733l-61 -189q-5 -19 -19 -19h-38q-9 0 -9 10q0 6 1 9l37 189q4 19 20 19h59q11 0 11 -11q0 -5 -1 -8z" />
    <glyph glyph-name="parenleft" unicode="(" horiz-adv-x="305" 
d="M270 -209h-47q-14 0 -23 11q-66 80 -103 206q-37 123 -37 257v13q0 134 37 257q37 126 103 206q9 11 23 11h47q10 0 10 -8q0 -5 -3 -10q-129 -190 -129 -456v-13q0 -266 129 -456q3 -4 3 -10q0 -8 -10 -8z" />
    <glyph glyph-name="parenright" unicode=")" horiz-adv-x="305" 
d="M259 265q0 -134 -37 -257q-37 -126 -103 -206q-9 -11 -23 -11h-47q-10 0 -10 8q0 6 3 10q129 190 129 456v13q0 266 -129 456q-3 5 -3 10q0 8 10 8h47q14 0 23 -11q66 -80 103 -206q37 -123 37 -257v-13z" />
    <glyph glyph-name="asterisk" unicode="*" horiz-adv-x="465" 
d="M405 583l-125 -39l77 -106q5 -7 5 -13t-6 -11l-24 -18q-4 -3 -8 -3q-8 0 -15 10l-76 106l-76 -106q-7 -10 -15 -10q-3 0 -8 3l-25 18q-6 5 -6 11t5 13l78 106l-124 39q-15 6 -15 15l10 34q3 10 13 10q3 0 9 -2l125 -41l-1 131q0 19 15 19h30q15 0 15 -19l-1 -131l125 41
q6 2 9 2q10 0 13 -10l9 -29q1 -2 1 -5q0 -10 -14 -15z" />
    <glyph glyph-name="comma" unicode="," horiz-adv-x="214" 
d="M167 110l-75 -189q-7 -19 -19 -19h-41q-12 0 -12 12q0 5 1 7l57 189q6 19 20 19h58q13 0 13 -11q0 -2 -2 -8z" />
    <glyph glyph-name="hyphen" unicode="-" horiz-adv-x="333" 
d="M285 273q0 -17 -19 -17h-199q-19 0 -19 17v39q0 18 19 18h199q19 0 19 -18v-39z" />
    <glyph glyph-name="period" unicode="." horiz-adv-x="214" 
d="M150 21q0 -20 -19 -20h-48q-19 0 -19 20v93q0 19 19 19h48q19 0 19 -19v-93z" />
    <glyph glyph-name="zero" unicode="0" 
d="M548 304q0 -160 -66 -238q-61 -73 -179 -73t-180 73q-66 78 -66 238v135q0 160 66 238q62 73 180 73t179 -73q66 -78 66 -238v-135zM457 439q0 122 -42 180q-38 54 -112 54t-112 -54q-42 -58 -42 -180v-135q0 -122 42 -180q38 -54 112 -54t112 54q42 58 42 180v135z" />
    <glyph glyph-name="one" unicode="1" horiz-adv-x="429" 
d="M293 20q0 -20 -18 -20h-55q-18 0 -18 20v629l-129 -56q-7 -3 -13 -3q-9 0 -9 11v51q0 7 10 13l151 72q12 6 21 6h41q19 0 19 -19v-704z" />
    <glyph glyph-name="two" unicode="2" 
d="M396 378l-96 -65q-82 -55 -112 -102q-28 -44 -28 -111v-21h337q20 0 20 -17v-44q0 -18 -20 -18h-397q-20 0 -20 19v81q0 161 153 263l101 68q63 43 83 69q20 27 20 71q0 103 -150 103q-37 0 -87 -4q-44 -4 -90 -11h-4q-16 0 -16 18v35q0 14 19 18q78 20 178 20
q239 0 239 -179q0 -105 -130 -193z" />
    <glyph glyph-name="three" unicode="3" 
d="M521 207q0 -108 -70 -163q-64 -51 -179 -51q-44 0 -90 6q-39 5 -79 14q-19 4 -19 19v34q0 17 17 17l92 -10q46 -4 79 -4q156 0 156 138v21q0 48 -24 81q-31 41 -93 41h-172q-19 0 -19 18v35q0 19 19 19h172q65 0 95 40q22 30 22 79v14q0 119 -156 119q-38 0 -81 -4
l-90 -11q-17 0 -17 17v35q0 15 19 19q44 9 79 14q47 6 90 6q120 0 180 -42q69 -48 69 -153v-14q0 -108 -95 -156q50 -24 74 -70q21 -39 21 -87v-21z" />
    <glyph glyph-name="four" unicode="4" 
d="M567 216q0 -18 -19 -18h-87v-178q0 -20 -17 -20h-58q-17 0 -17 20v178h-289q-41 0 -41 39v38q0 21 12 37l296 415q10 16 29 16h59q26 0 26 -22v-447h87q19 0 19 -18v-40zM370 616q0 6 -4 6h-1q-4 0 -8 -6l-231 -328q-3 -4 -3 -8q0 -6 8 -6h239v342z" />
    <glyph glyph-name="five" unicode="5" 
d="M528 226q0 -233 -255 -233q-101 0 -176 18q-19 5 -19 20v37q0 15 15 15h5q44 -8 92 -11q40 -3 83 -3q163 0 163 157v15q0 134 -209 134h-120q-16 0 -16 17l28 334q2 17 20 17h344q20 0 20 -17v-44q0 -16 -20 -16h-287l-16 -216h47q148 0 220 -44q81 -51 81 -165v-15z" />
    <glyph glyph-name="six" unicode="6" 
d="M546 246q0 -253 -244 -253q-115 0 -177 69q-65 72 -65 215v175q0 157 66 229q64 69 195 69q54 0 100 -5q36 -4 72 -12q23 -6 23 -19v-39q0 -18 -18 -18l-6 1q-82 16 -171 16q-106 0 -143 -62q-17 -27 -23 -70q-5 -34 -5 -90v-11l32 7q19 4 36 6q42 7 83 7q109 0 171 -44
q74 -53 74 -165v-6zM456 252q0 75 -48 110q-39 28 -107 28q-79 0 -151 -18v-95q0 -117 40 -166q35 -44 112 -44q74 0 112 39q42 44 42 140v6z" />
    <glyph glyph-name="seven" unicode="7" horiz-adv-x="527" 
d="M483 628l-288 -613q-7 -15 -22 -15h-60q-15 0 -15 15q0 5 3 11l302 628q1 1 1 4q0 7 -7 7h-341q-20 0 -20 17v42q0 19 20 19h365q75 0 75 -63q0 -24 -13 -52z" />
    <glyph glyph-name="eight" unicode="8" 
d="M551 207q0 -105 -72 -162q-65 -52 -171 -52h-10q-106 0 -171 52q-72 57 -72 162v19q0 108 97 162q-95 48 -95 156v9q0 99 69 150q63 47 172 47h10q109 0 172 -47q69 -51 69 -150v-9q0 -108 -95 -156q97 -54 97 -162v-19zM461 553q0 123 -153 123h-10q-153 0 -153 -123v-9
q0 -51 29 -83q33 -37 98 -37h62q65 0 98 37q29 32 29 83v9zM460 226q0 50 -28 84q-35 42 -98 42h-62q-63 0 -97 -42q-29 -34 -29 -84v-19q0 -138 152 -138h10q152 0 152 138v19z" />
    <glyph glyph-name="nine" unicode="9" 
d="M537 291q0 -157 -66 -229q-64 -69 -195 -69q-54 0 -100 5q-36 4 -72 12q-24 6 -24 19v39q0 18 18 18l6 -1q82 -16 171 -16q107 0 144 62q17 27 23 70q5 34 5 90v11l-33 -7q-19 -4 -35 -6q-43 -7 -83 -7q-110 0 -172 44q-74 53 -74 165v6q0 253 244 253q116 0 178 -68
q65 -73 65 -216v-175zM447 466q0 117 -40 166q-35 44 -112 44q-75 0 -113 -39q-42 -43 -42 -140v-6q0 -75 48 -109q39 -29 107 -29q79 0 151 18z" />
    <glyph glyph-name="colon" unicode=":" horiz-adv-x="219" 
d="M153 437q0 -19 -20 -19h-47q-20 0 -20 19v93q0 20 20 20h47q20 0 20 -20v-93zM153 19q0 -19 -20 -19h-47q-20 0 -20 19v94q0 19 20 19h47q20 0 20 -19v-94z" />
    <glyph glyph-name="semicolon" unicode=";" horiz-adv-x="219" 
d="M153 437q0 -19 -19 -19h-49q-19 0 -19 19v93q0 20 19 20h49q19 0 19 -20v-93zM155 109l-75 -189q-8 -20 -19 -20h-40q-12 0 -12 13q0 5 1 7l57 189q6 19 20 19h57q13 0 13 -11q0 -2 -2 -8z" />
    <glyph glyph-name="question" unicode="?" horiz-adv-x="446" 
d="M386 587q0 -38 -17 -72q-20 -38 -74 -99l-45 -51q-32 -37 -40 -51q-13 -22 -13 -52v-49q0 -19 -20 -19h-44q-19 0 -19 19v49q0 79 66 151l46 51q62 68 62 123v12q0 72 -102 72q-33 0 -69 -3l-69 -6q-15 0 -15 17v35q0 20 17 23q67 13 136 13q93 0 143 -32q57 -38 57 -119
v-12zM198 19q0 -19 -19 -19h-48q-20 0 -20 19v93q0 20 20 20h48q19 0 19 -20v-93z" />
    <glyph glyph-name="at" unicode="@" horiz-adv-x="767" 
d="M634 118q-84 -64 -270 -64q-161 0 -161 139v9q0 5 1 9l11 117q16 159 182 159q30 0 66 -4q30 -4 62 -11q21 -5 21 -21l-30 -317q87 13 120 76q15 28 21 70q5 35 5 86q0 100 -61 163q-67 69 -185 69q-129 0 -207 -70q-76 -68 -87 -184l-15 -152q-2 -22 -2 -32
q0 -95 62 -151q67 -62 190 -62q34 0 72 2l73 5q6 0 8 -3q1 -2 1 -4v-32q0 -12 -16 -14q-12 -1 -24 -3l-33 -2q-42 -3 -82 -3q-143 0 -229 74q-86 73 -86 194q0 21 1 31l15 156q13 139 107 222q98 86 255 86q147 0 232 -89q77 -81 77 -201q0 -176 -94 -248zM457 409
q-42 6 -68 6q-82 0 -91 -89l-11 -114q-1 -4 -1 -9v-8q0 -69 82 -69h43l21 2z" />
    <glyph glyph-name="A" unicode="A" horiz-adv-x="644" 
d="M566 20q0 -20 -18 -20h-55q-18 0 -18 20v296h-306v-296q0 -20 -18 -20h-55q-18 0 -18 20v523q0 112 54 161q50 46 161 46h58q110 0 161 -46q54 -49 54 -161v-523zM475 543q0 76 -28 103q-26 24 -96 24h-58q-70 0 -96 -24q-28 -27 -28 -103v-147h306v147z" />
    <glyph glyph-name="B" unicode="B" horiz-adv-x="616" 
d="M566 205q0 -117 -87 -169q-39 -23 -94 -33q-48 -10 -111 -10q-106 0 -163 9q-33 4 -33 37v666q0 34 32 37q27 3 68 6q45 2 91 2q63 0 113 -9q55 -10 93 -31q87 -48 87 -153v-16q0 -116 -107 -157q111 -39 111 -162v-17zM471 557q0 67 -55 94q-46 22 -147 22q-21 0 -52 -1
l-47 -2v-248h154q81 0 117 36q30 29 30 83v16zM475 222q0 56 -31 88q-38 39 -120 39h-154v-275l51 -2q33 -2 53 -2q101 0 147 27q54 31 54 108v17z" />
    <glyph glyph-name="C" unicode="C" horiz-adv-x="545" 
d="M510 26q0 -16 -20 -20q-35 -7 -67 -9q-40 -4 -99 -4q-50 0 -93 14q-49 16 -85 49q-40 38 -62 95q-24 64 -24 151v139q0 88 24 152q21 57 62 94q36 33 85 49q43 14 93 14q42 0 91 -5q19 -2 41 -6l36 -5q16 -2 16 -13v-51q0 -11 -12 -11l-79 6q-54 3 -92 3q-80 0 -124 -50
q-50 -57 -50 -177v-139q0 -119 50 -176q44 -51 124 -51q38 0 90 3l79 5q16 0 16 -16v-41z" />
    <glyph glyph-name="D" unicode="D" horiz-adv-x="641" 
d="M584 304q0 -156 -82 -236q-78 -75 -221 -75q-124 0 -182 10q-21 3 -21 25v687q0 22 21 25q58 10 182 10q144 0 221 -74q82 -80 82 -237v-135zM493 439q0 127 -61 184q-52 49 -151 49q-61 0 -111 -3v-596l50 -2h61q99 0 151 49q61 57 61 184v135z" />
    <glyph glyph-name="E" unicode="E" horiz-adv-x="551" 
d="M496 12q0 -12 -10 -14q-26 -3 -90 -4q-48 -1 -105 -1q-213 0 -213 186v385q0 186 213 186q50 0 104 -1q62 -2 91 -5q10 -2 10 -14v-50q0 -12 -11 -12h-193q-76 0 -101 -23q-22 -21 -22 -81v-139h307q20 0 20 -20v-38q0 -20 -20 -20h-307v-168q0 -60 22 -80
q25 -24 101 -24h193q11 0 11 -12v-51z" />
    <glyph glyph-name="F" unicode="F" horiz-adv-x="551" 
d="M496 367q0 -20 -20 -20h-307v-327q0 -20 -20 -20h-51q-20 0 -20 20v544q0 186 213 186q50 0 104 -1q62 -2 91 -5q10 -2 10 -14v-50q0 -12 -11 -12h-193q-76 0 -101 -23q-22 -21 -22 -81v-139h307q20 0 20 -20v-38z" />
    <glyph glyph-name="G" unicode="G" horiz-adv-x="612" 
d="M534 30q0 -19 -18 -22q-44 -7 -83 -10q-52 -5 -116 -5q-107 0 -176 70q-39 39 -60 96q-23 63 -23 145v134q0 87 24 151q21 58 62 96q36 34 86 50q44 15 96 15q62 0 116 -5l41 -4q16 -2 33 -5q17 -2 17 -15v-50q0 -10 -13 -10h-4q-83 7 -190 7q-79 0 -123 -47
q-54 -58 -54 -183v-134q0 -117 49 -177q44 -53 119 -53q39 0 77 2l49 4v286q0 20 18 20h54q19 0 19 -20v-336z" />
    <glyph glyph-name="H" unicode="H" horiz-adv-x="680" 
d="M602 20q0 -20 -20 -20h-51q-20 0 -20 20v332h-342v-332q0 -20 -20 -20h-51q-20 0 -20 20v703q0 20 20 20h51q20 0 20 -20v-290h342v290q0 20 20 20h51q20 0 20 -20v-703z" />
    <glyph glyph-name="I" unicode="I" horiz-adv-x="267" 
d="M179 20q0 -20 -18 -20h-55q-18 0 -18 20v704q0 19 18 19h55q18 0 18 -19v-704z" />
    <glyph glyph-name="J" unicode="J" horiz-adv-x="262" 
d="M174 111q0 -117 -38 -185l-53 -96q-14 -25 -30 -25h-56q-12 0 -12 10q0 7 5 17l61 116q32 61 32 163v613q0 19 17 19h57q17 0 17 -19v-613z" />
    <glyph glyph-name="K" unicode="K" horiz-adv-x="607" 
d="M554 0h-80q-13 0 -22 10l-283 346v-336q0 -20 -18 -20h-55q-18 0 -18 20v704q0 19 19 19h53q19 0 19 -19v-322l288 332q9 9 20 9h70q16 0 16 -12q0 -3 -4 -9l-302 -340l303 -366q3 -4 3 -8q0 -8 -9 -8z" />
    <glyph glyph-name="L" unicode="L" horiz-adv-x="514" 
d="M496 16q0 -12 -10 -14q-22 -3 -72 -6q-58 -3 -123 -3q-46 0 -78 6q-41 7 -69 25q-66 43 -66 155v544q0 20 20 20h51q20 0 20 -20v-544q0 -60 22 -80q25 -24 101 -24h193q11 0 11 -12v-47z" />
    <glyph glyph-name="M" unicode="M" horiz-adv-x="762" 
d="M684 20q0 -20 -17 -20h-55q-17 0 -17 17v628q0 7 -2 9q-1 2 -5 2q-6 0 -10 -11l-124 -318q-15 -40 -47 -40h-52q-32 0 -47 40l-124 318q-4 11 -10 11q-4 0 -5 -2q-2 -2 -2 -9v-628q0 -17 -17 -17h-55q-17 0 -17 20v652q0 46 19 61q14 10 49 10h37q49 0 75 -67l116 -304
q2 -6 4 -8q1 -1 3 -1q3 0 4 1l119 312q26 67 75 67h37q35 0 49 -10q19 -15 19 -61v-652z" />
    <glyph glyph-name="N" unicode="N" horiz-adv-x="662" 
d="M592 20q0 -20 -18 -20h-56q-17 0 -17 20v442q0 124 -45 170q-40 39 -139 39q-29 0 -81 -2q-45 -2 -67 -4v-645q0 -20 -18 -20h-55q-18 0 -18 20v684q0 31 28 35q36 5 107 9q61 3 106 3q141 0 204 -62q69 -67 69 -227v-442z" />
    <glyph glyph-name="O" unicode="O" horiz-adv-x="661" 
d="M601 307q0 -160 -76 -240q-70 -74 -194 -74t-194 74q-77 81 -77 240v129q0 159 77 240q70 74 194 74t194 -74q76 -80 76 -240v-129zM509 436q0 122 -48 179q-44 53 -130 53t-130 -53q-49 -58 -49 -179v-129q0 -121 48 -179q45 -53 131 -53t130 53q48 58 48 179v129z" />
    <glyph glyph-name="P" unicode="P" horiz-adv-x="593" 
d="M548 520q0 -119 -79 -175q-70 -49 -201 -49q-21 0 -52 2q-12 0 -26 1q-6 1 -12 1q-4 1 -10 1v-281q0 -20 -18 -20h-54q-18 0 -18 20v697q0 22 24 25q69 8 166 8q131 0 201 -48q79 -54 79 -169v-13zM457 533q0 140 -189 140q-52 0 -100 -4v-293l49 -2q35 -2 51 -2
q189 0 189 148v13z" />
    <glyph glyph-name="Q" unicode="Q" horiz-adv-x="661" 
d="M601 307q0 -144 -63 -224q-58 -74 -163 -87v-161q0 -20 -17 -20h-54q-17 0 -17 20v161q-106 13 -164 87q-63 80 -63 224v129q0 159 77 240q70 74 194 74t194 -74q76 -80 76 -240v-129zM509 436q0 122 -48 179q-44 53 -130 53t-130 -53q-49 -58 -49 -179v-129
q0 -121 48 -179q45 -53 131 -53t130 53q48 58 48 179v129z" />
    <glyph glyph-name="R" unicode="R" horiz-adv-x="625" 
d="M575 0h-70q-14 0 -22 13l-179 298l-136 3v-294q0 -20 -18 -20h-54q-18 0 -18 20v700q0 19 24 22q69 8 176 8q129 0 199 -47q81 -54 81 -168v-7q0 -81 -44 -134q-41 -49 -113 -68l184 -307q3 -4 3 -9q0 -10 -13 -10zM468 535q0 133 -190 133h-58q-36 -1 -52 -3v-274
l110 -2q97 0 141 29q49 32 49 110v7z" />
    <glyph glyph-name="S" unicode="S" horiz-adv-x="550" 
d="M489 121q-12 -37 -39 -64q-29 -30 -75 -46q-51 -18 -122 -18q-47 0 -93 4q-32 3 -73 10q-19 3 -19 18v40q0 16 17 16h3q32 -3 83 -4q44 -2 82 -2q85 0 121 33q31 28 31 85q0 60 -120 134l-97 59q-138 84 -138 187q0 177 239 177q98 0 174 -12q17 -3 17 -17v-43
q0 -16 -17 -16l-83 4q-50 2 -91 2q-147 0 -147 -95q0 -55 109 -121l92 -55q157 -93 157 -204q0 -39 -11 -72z" />
    <glyph glyph-name="T" unicode="T" horiz-adv-x="590" 
d="M555 681q0 -16 -19 -16h-195v-645q0 -20 -18 -20h-55q-18 0 -18 20v645h-195q-20 0 -20 16v44q0 18 20 18h481q19 0 19 -18v-44z" />
    <glyph glyph-name="U" unicode="U" horiz-adv-x="662" 
d="M584 36q0 -28 -28 -32q-36 -5 -107 -9q-61 -3 -106 -3q-141 0 -204 62q-69 67 -69 227v442q0 20 18 20h56q17 0 17 -20v-442q0 -124 46 -170q39 -39 138 -39q29 0 81 2q45 2 67 4v645q0 20 18 20h55q18 0 18 -20v-687z" />
    <glyph glyph-name="V" unicode="V" horiz-adv-x="643" 
d="M608 720l-184 -651q-12 -43 -43 -62q-24 -14 -59 -14q-34 0 -58 14q-32 19 -44 62l-185 651q-1 2 -1 6q0 17 18 17h58q14 0 18 -15l174 -637q6 -21 20 -21q13 0 19 21l175 637q4 15 17 15h59q17 0 17 -17q0 -4 -1 -6z" />
    <glyph glyph-name="W" unicode="W" horiz-adv-x="825" 
d="M680 47q-9 -51 -62 -51h-43q-44 0 -57 50l-98 370q-1 6 -3 8q0 1 -3 1h-2q-2 0 -3 -1q-2 -2 -3 -8l-99 -370q-13 -50 -57 -50h-42q-53 0 -62 51l-111 679q0 17 17 17h58q14 0 17 -17l97 -637q3 -15 5 -15q4 0 7 15l98 370q10 40 47 40h64q37 0 47 -40l98 -370
q3 -15 7 -15q2 0 5 15l97 637q3 17 17 17h58q17 0 17 -17z" />
    <glyph glyph-name="X" unicode="X" horiz-adv-x="646" 
d="M588 0h-63q-11 0 -21 15l-183 291l-179 -291q-10 -15 -21 -15h-59q-16 0 -16 15q0 6 3 10l222 353l-220 341q-3 5 -3 10q0 14 15 14h65q12 0 18 -10l180 -285l174 285q7 10 19 10h59q16 0 16 -15q0 -4 -3 -9l-215 -343l225 -351q3 -4 3 -11q0 -14 -16 -14z" />
    <glyph glyph-name="Y" unicode="Y" horiz-adv-x="596" 
d="M553 718l-209 -416v-282q0 -20 -18 -20h-57q-17 0 -17 20v282l-209 416q-3 8 -3 12q0 13 16 13h63q11 0 17 -14l162 -339l162 339q3 6 7 10t10 4h62q17 0 17 -14q0 -5 -3 -11z" />
    <glyph glyph-name="Z" unicode="Z" horiz-adv-x="593" 
d="M543 18q0 -18 -20 -18h-385q-83 0 -83 74q0 30 15 52l358 521q3 5 3 8q0 7 -10 7h-332q-20 0 -20 17v47q0 17 20 17h356q85 0 85 -72q0 -29 -16 -53l-357 -521q-3 -4 -3 -9q0 -6 10 -6h359q20 0 20 -17v-47z" />
    <glyph glyph-name="bracketleft" unicode="[" horiz-adv-x="327" 
d="M303 -174q0 -20 -20 -20h-186q-17 0 -17 19v899q0 19 17 19h186q20 0 20 -20v-33q0 -20 -20 -20h-114v-791h114q20 0 20 -20v-33z" />
    <glyph glyph-name="bracketright" unicode="]" horiz-adv-x="327" 
d="M247 -175q0 -19 -17 -19h-186q-20 0 -20 20v33q0 20 20 20h114v791h-114q-20 0 -20 20v33q0 20 20 20h186q17 0 17 -19v-899z" />
    <glyph glyph-name="quoteleft" unicode="&#x2018;" horiz-adv-x="186" 
d="M156 733l-37 -189q-4 -19 -20 -19h-59q-11 0 -11 11q0 5 1 8l61 189q5 19 19 19h38q9 0 9 -10q0 -6 -1 -9z" />
    <glyph glyph-name="a" unicode="a" horiz-adv-x="541" 
d="M473 39q0 -18 -21 -23q-94 -23 -184 -23q-109 0 -165 67q-53 64 -53 180v70q0 116 53 180q56 67 165 67q90 0 184 -23q21 -5 21 -23v-472zM385 473q-54 10 -117 10q-71 0 -102 -47q-28 -41 -28 -126v-70q0 -84 28 -126q31 -47 102 -47q61 0 117 10v396z" />
    <glyph glyph-name="b" unicode="b" horiz-adv-x="541" 
d="M491 240q0 -116 -53 -180q-56 -67 -165 -67q-96 0 -184 17q-21 4 -21 23v700q0 19 18 19h51q19 0 19 -19v-186q54 10 117 10q218 0 218 -245v-72zM403 312q0 168 -130 168l-58 -1q-37 -2 -59 -6v-397q68 -6 117 -6q130 0 130 170v72z" />
    <glyph glyph-name="c" unicode="c" horiz-adv-x="452" 
d="M408 26q0 -18 -20 -22q-60 -11 -125 -11q-101 0 -157 66q-56 65 -56 177v78q0 112 55 177q57 66 158 66q65 0 125 -11q20 -4 20 -22v-36q0 -15 -17 -15h-4q-62 7 -124 7q-125 0 -125 -166v-78q0 -166 125 -166q62 0 124 7h4q17 0 17 -15v-36z" />
    <glyph glyph-name="d" unicode="d" horiz-adv-x="541" 
d="M473 33q0 -19 -21 -23q-88 -17 -184 -17q-109 0 -165 67q-53 64 -53 180v72q0 245 218 245q61 0 117 -10v186q0 19 19 19h51q18 0 18 -19v-700zM385 473q-22 4 -59 6q-26 1 -58 1q-130 0 -130 -168v-72q0 -170 130 -170q49 0 117 6v397z" />
    <glyph glyph-name="e" unicode="e" horiz-adv-x="544" 
d="M494 269q0 -22 -19 -22h-335v-12q0 -168 146 -168q40 0 90 4q42 4 81 10h5q16 0 16 -14v-34q0 -19 -20 -23q-88 -17 -172 -17q-46 0 -85 12q-44 13 -75 40q-74 63 -74 195v70q0 110 57 177q60 70 165 70q106 0 165 -70q55 -66 55 -176v-42zM405 319q0 161 -131 161
q-134 0 -134 -161v-5h265v5z" />
    <glyph glyph-name="f" unicode="f" horiz-adv-x="357" 
d="M332 702q0 -14 -21 -14h-89q-42 0 -54 -12t-12 -56v-70h156q19 0 19 -18v-34q0 -18 -19 -18h-156v-460q0 -20 -20 -20h-48q-20 0 -20 20v600q0 76 42 110q37 29 112 29q52 0 90 -6q20 -3 20 -17v-34z" />
    <glyph glyph-name="g" unicode="g" horiz-adv-x="541" 
d="M473 1q0 -110 -50 -156q-47 -42 -153 -42q-52 0 -103 6q-42 5 -67 12q-20 6 -20 21v29q0 16 18 16h3q37 -4 78 -7q56 -5 91 -5q70 0 92 24q23 24 23 98v10q-56 -14 -112 -14q-103 0 -158 53q-65 61 -65 193v73q0 245 223 245q41 0 94 -7q45 -7 85 -16q21 -5 21 -23v-510z
M385 472q-25 5 -50 7q-33 4 -62 4q-135 0 -135 -171v-73q0 -93 34 -134q32 -38 101 -38q63 0 112 11v394z" />
    <glyph glyph-name="h" unicode="h" horiz-adv-x="557" 
d="M489 20q0 -20 -20 -20h-48q-20 0 -20 20v336q0 126 -130 126q-63 0 -115 -15v-447q0 -20 -20 -20h-48q-20 0 -20 20v713q0 19 18 19h51q19 0 19 -19v-190q60 14 115 14q109 0 165 -56q53 -52 53 -145v-336z" />
    <glyph glyph-name="i" unicode="i" horiz-adv-x="247" 
d="M169 658q0 -20 -20 -20h-51q-20 0 -20 20v80q0 20 20 20h51q20 0 20 -20v-80zM167 20q0 -20 -20 -20h-48q-20 0 -20 20v510q0 20 20 20h48q20 0 20 -20v-510z" />
    <glyph glyph-name="j" unicode="j" horiz-adv-x="247" 
d="M169 658q0 -20 -20 -20h-52q-19 0 -19 20v81q0 19 19 19h52q20 0 20 -19v-81zM167 -64q0 -74 -33 -105q-29 -28 -93 -28q-27 0 -54 4q-18 3 -18 16v37q0 14 21 14h42q47 0 47 62v594q0 20 20 20h48q20 0 20 -20v-594z" />
    <glyph glyph-name="k" unicode="k" horiz-adv-x="496" 
d="M450 0h-72q-13 0 -23 13l-199 246v-239q0 -20 -20 -20h-48q-20 0 -20 20v712q0 20 20 20h48q20 0 20 -20v-416l200 225q8 9 20 9h70q15 0 15 -11q0 -6 -5 -11l-220 -238l222 -268q3 -3 3 -9q0 -13 -11 -13z" />
    <glyph glyph-name="l" unicode="l" horiz-adv-x="244" 
d="M166 20q0 -20 -18 -20h-52q-18 0 -18 20v713q0 19 18 19h52q18 0 18 -19v-713z" />
    <glyph glyph-name="m" unicode="m" horiz-adv-x="798" 
d="M730 20q0 -20 -18 -20h-52q-18 0 -18 20v362q0 59 -25 81q-19 17 -65 17h-23q-50 0 -67 -13q-19 -14 -19 -55v-392q0 -20 -18 -20h-52q-18 0 -18 20v392q0 41 -19 55q-17 13 -67 13h-23q-45 0 -64 -17q-26 -22 -26 -81v-362q0 -20 -18 -20h-52q-18 0 -18 20v362
q0 80 44 126q47 49 134 49h23q90 0 130 -36q42 36 130 36h23q87 0 134 -49q44 -46 44 -126v-362z" />
    <glyph glyph-name="n" unicode="n" horiz-adv-x="557" 
d="M489 20q0 -20 -18 -20h-52q-18 0 -18 20v357q0 104 -87 104h-71q-87 0 -87 -104v-357q0 -20 -18 -20h-52q-18 0 -18 20v357q0 54 18 93q15 34 44 55q24 17 57 26q26 6 56 6h71q30 0 56 -6q33 -9 57 -26q29 -21 44 -55q18 -39 18 -93v-357z" />
    <glyph glyph-name="o" unicode="o" horiz-adv-x="545" 
d="M495 237q0 -113 -56 -177q-59 -67 -167 -67t-166 67q-56 64 -56 177v76q0 113 56 177q58 67 166 67t167 -67q56 -64 56 -177v-76zM407 313q0 167 -135 167q-134 0 -134 -167v-76q0 -167 134 -167q135 0 135 167v76z" />
    <glyph glyph-name="p" unicode="p" horiz-adv-x="541" 
d="M491 238q0 -245 -218 -245q-56 0 -117 11v-181q0 -19 -19 -19h-51q-18 0 -18 19v688q0 18 21 23q94 23 184 23q109 0 165 -67q53 -64 53 -180v-72zM403 310q0 84 -28 126q-31 47 -102 47q-61 0 -117 -10v-396q55 -10 117 -10q130 0 130 171v72z" />
    <glyph glyph-name="q" unicode="q" horiz-adv-x="541" 
d="M473 -177q0 -19 -18 -19h-51q-19 0 -19 19v181q-60 -11 -117 -11q-218 0 -218 245v72q0 116 53 180q56 67 165 67q90 0 184 -23q21 -5 21 -23v-688zM385 473q-54 10 -117 10q-71 0 -102 -47q-28 -41 -28 -126v-72q0 -171 130 -171q62 0 117 10v396z" />
    <glyph glyph-name="r" unicode="r" horiz-adv-x="354" 
d="M316 496q0 -16 -21 -16q-91 0 -139 -10v-450q0 -20 -18 -20h-52q-18 0 -18 20v486q0 15 18 23q39 17 95 23q24 3 54 4q25 1 60 1q21 0 21 -15v-46z" />
    <glyph glyph-name="s" unicode="s" horiz-adv-x="466" 
d="M365 27q-48 -34 -136 -34q-34 0 -74 3q-51 5 -84 12q-21 5 -21 20v35q0 15 18 15h4q88 -11 157 -11q99 0 99 71q0 38 -75 83l-101 60q-49 30 -74 62q-28 36 -28 81q0 73 52 106q44 27 129 27q80 0 156 -13q19 -3 19 -20v-33q0 -17 -17 -17l-73 5q-48 3 -85 3
q-48 0 -67 -10q-26 -13 -26 -48t69 -76l99 -59q110 -65 110 -151q0 -74 -51 -111z" />
    <glyph glyph-name="t" unicode="t" horiz-adv-x="357" 
d="M332 16q0 -14 -20 -17q-38 -6 -96 -6q-75 0 -109 29q-39 33 -39 110v516q0 15 20 19l51 8q17 0 17 -19v-106h156q19 0 19 -18v-34q0 -18 -19 -18h-156v-348q0 -42 16 -56q15 -12 58 -12h81q21 0 21 -14v-34z" />
    <glyph glyph-name="u" unicode="u" horiz-adv-x="557" 
d="M489 228q0 -69 -23 -120q-19 -43 -54 -71q-30 -24 -68 -35q-31 -9 -61 -9h-9q-30 0 -61 9q-38 11 -67 35q-36 28 -55 71q-23 51 -23 120v302q0 20 18 20h52q18 0 18 -20v-302q0 -85 34 -124q29 -34 84 -34h9q55 0 84 34q34 39 34 124v302q0 20 18 20h52q18 0 18 -20v-302
z" />
    <glyph glyph-name="v" unicode="v" horiz-adv-x="530" 
d="M490 526l-128 -454q-12 -44 -40 -63q-23 -16 -57 -16q-33 0 -56 16q-29 19 -41 63l-128 454q-1 3 -1 7q0 17 16 17h55q15 0 19 -19l112 -434q7 -31 24 -31t24 31l112 434q4 19 19 19h56q15 0 15 -16q0 -5 -1 -8z" />
    <glyph glyph-name="w" unicode="w" horiz-adv-x="805" 
d="M737 217q0 -122 -62 -178q-51 -46 -140 -46q-65 0 -132 24q-67 -24 -133 -24q-89 0 -140 46q-62 56 -62 178v313q0 20 20 20h47q20 0 20 -20v-313q0 -149 123 -149q17 0 39 4q14 2 41 9v449q0 20 20 20h49q20 0 20 -20v-449q27 -7 42 -9q21 -4 38 -4q123 0 123 149v313
q0 20 20 20h47q20 0 20 -20v-313z" />
    <glyph glyph-name="x" unicode="x" horiz-adv-x="517" 
d="M483 0h-69q-9 0 -14 8l-143 209l-143 -207q-7 -10 -17 -10h-60q-12 0 -12 10q0 7 5 13l180 257l-170 245q-5 8 -5 13q0 12 15 12h65q11 0 20 -14l127 -188l128 188q10 14 21 14h58q13 0 13 -12q0 -5 -5 -13l-168 -239l183 -263q4 -5 4 -12q0 -11 -13 -11z" />
    <glyph glyph-name="y" unicode="y" horiz-adv-x="557" 
d="M489 0q0 -113 -51 -158q-46 -40 -153 -40q-50 0 -102 6q-41 5 -63 11q-19 5 -19 21v28q0 17 18 17l33 -4q20 -2 41 -3q54 -5 92 -5q69 0 93 24q25 26 25 103v5q-41 -12 -111 -12q-47 0 -84 9q-42 10 -71 32q-69 51 -69 166v330q0 20 20 20h48q20 0 20 -20v-330
q0 -76 37 -106q30 -26 99 -26q55 0 109 13v449q0 20 20 20h48q20 0 20 -20v-530z" />
    <glyph glyph-name="z" unicode="z" horiz-adv-x="482" 
d="M432 20q0 -20 -20 -20h-264q-47 0 -70 14q-29 17 -29 59q0 39 23 66l258 321q4 6 4 9q0 7 -10 7h-243q-20 0 -20 20v34q0 20 20 20h247q100 0 100 -69q0 -36 -22 -62l-261 -326q-5 -5 -5 -11q0 -8 10 -8h262q20 0 20 -20v-34z" />
    <glyph glyph-name="braceleft" unicode="{" horiz-adv-x="331" 
d="M304 -174q0 -20 -20 -20h-51q-91 0 -122 29t-31 109v176q0 83 -60 125v58q60 42 60 124v178q0 80 31 109t122 29h50q20 0 20 -20v-33q0 -20 -20 -20h-45q-44 0 -57 -13q-12 -12 -12 -52v-178q0 -105 -71 -154q71 -50 71 -153v-176q0 -40 12 -52q13 -13 57 -13h46
q20 0 20 -20v-33z" />
    <glyph glyph-name="braceright" unicode="}" horiz-adv-x="331" 
d="M311 245q-60 -42 -60 -125v-176q0 -80 -31 -109t-122 -29h-51q-20 0 -20 20v33q0 20 20 20h46q44 0 57 13q12 12 12 52v176q0 103 71 153q-71 49 -71 154v178q0 40 -12 52q-13 13 -57 13h-45q-20 0 -20 20v33q0 20 20 20h50q91 0 122 -29t31 -109v-178q0 -82 60 -124v-58
z" />
    <glyph glyph-name="exclamdown" unicode="&#xa1;" horiz-adv-x="217" 
d="M153 437q0 -19 -19 -19h-48q-19 0 -19 19v94q0 19 19 19h48q19 0 19 -19v-94zM84 -203q-19 0 -19 19l7 520q0 19 20 19h35q20 0 20 -19l8 -520q0 -19 -20 -19h-51z" />
    <glyph glyph-name="cent" unicode="&#xa2;" 
d="M482 26q0 -18 -20 -22q-45 -7 -94 -10v-90q0 -20 -20 -20h-41q-20 0 -20 20v94q-163 33 -163 238v78q0 205 163 238v93q0 20 20 20h41q20 0 20 -20v-89q49 -3 94 -10q20 -4 20 -22v-36q0 -15 -17 -15l-64 6q-30 2 -64 2q-125 0 -125 -167v-78q0 -167 125 -167q34 0 64 2
l64 6q17 0 17 -15v-36z" />
    <glyph glyph-name="sterling" unicode="&#xa3;" 
d="M525 17q0 -17 -20 -17h-399q-8 0 -13 5q-4 4 -4 10v39q0 6 4 13l6 10q31 53 31 118v152h-52q-18 0 -18 18v42q0 18 20 18h50v65q0 130 47 188q51 64 174 64q36 0 84 -4q41 -4 71 -9q19 -4 19 -17v-41q0 -17 -15 -17h-5q-41 5 -76 7q-46 4 -78 4q-77 0 -104 -37
q-26 -36 -26 -138v-65h215q19 0 19 -18v-42q0 -18 -20 -18h-214v-152q0 -34 -11 -67q-8 -23 -24 -52h319q20 0 20 -15v-44z" />
    <glyph glyph-name="yen" unicode="&#xa5;" 
d="M569 231q0 -20 -20 -20h-200v-191q0 -20 -18 -20h-57q-17 0 -17 20v191h-201q-20 0 -20 20v30q0 20 20 20h201v21l-55 110h-146q-20 0 -20 20v30q0 20 20 20h111l-119 236q-3 8 -3 12q0 13 16 13h63q11 0 17 -14l162 -339l162 339q3 6 7 10t10 4h62q17 0 17 -14
q0 -5 -3 -11l-119 -236h110q20 0 20 -20v-30q0 -20 -20 -20h-145l-55 -110v-21h200q20 0 20 -20v-30z" />
    <glyph glyph-name="florin" unicode="&#x192;" 
d="M544 707q-1 -15 -24 -15h-55q-65 0 -74 -68l-27 -196h143q17 0 17 -15l-5 -40q-2 -18 -22 -18h-143l-50 -357q-11 -74 -54 -107q-39 -30 -106 -30q-22 0 -42 2q-7 0 -15 1l-12 2q-17 3 -17 14l4 35q2 15 24 15h55q65 0 74 68l50 357h-128q-18 0 -18 16l5 39q2 18 23 18
h128l27 196q10 74 54 108q39 29 106 29q22 0 42 -2q7 0 15 -1l12 -2q17 -3 17 -14z" />
    <glyph glyph-name="section" unicode="&#xa7;" horiz-adv-x="547" 
d="M449 -154q-61 -62 -197 -62q-47 0 -94 4q-34 4 -74 10q-19 4 -19 19v42q0 17 20 17l12 -1q6 0 10 -1l61 -5q45 -3 81 -3h3q84 0 120 32q30 28 30 85q0 40 -21 65q-22 26 -87 65l-112 67q-78 47 -107 89q-27 40 -27 99q0 30 10 57q8 22 24 48q-34 36 -34 101q0 86 54 129
q58 47 185 47q100 0 175 -13q18 -4 18 -19v-43q0 -17 -18 -17l-131 8q-24 1 -44 1q-84 0 -116 -22q-28 -21 -28 -71q0 -58 101 -117l109 -64q85 -50 118 -98q28 -41 28 -102q0 -65 -29 -109q29 -43 29 -101q0 -87 -50 -137zM305 319l-99 60l-27 18q-23 14 -36 24
q-9 -27 -9 -53q0 -62 89 -114l110 -64q31 -18 67 -43q7 22 7 46q0 63 -102 126z" />
    <glyph glyph-name="quotedblleft" unicode="&#x201c;" horiz-adv-x="336" 
d="M306 733l-37 -189q-4 -19 -20 -19h-59q-11 0 -11 11q0 5 1 8l61 189q5 19 19 19h38q9 0 9 -10q0 -6 -1 -9zM156 733l-37 -189q-4 -19 -20 -19h-59q-11 0 -11 11q0 5 1 8l61 189q5 19 19 19h38q9 0 9 -10q0 -6 -1 -9z" />
    <glyph glyph-name="guillemotleft" unicode="&#xab;" horiz-adv-x="614" 
d="M549 70h-58q-11 0 -21 10l-169 169q-11 11 -11 28t11 28l169 169q10 10 21 10h58q11 0 11 -9q0 -7 -6 -13l-178 -185l178 -185q6 -6 6 -13q0 -9 -11 -9zM289 70h-58q-11 0 -21 10l-169 169q-11 11 -11 28t11 28l169 169q10 10 21 10h58q11 0 11 -9q0 -7 -6 -13l-178 -185
l178 -185q6 -6 6 -13q0 -9 -11 -9z" />
    <glyph glyph-name="guilsinglleft" unicode="&#x2039;" horiz-adv-x="354" 
d="M289 70h-58q-11 0 -21 10l-169 169q-11 11 -11 28t11 28l169 169q10 10 21 10h58q11 0 11 -9q0 -7 -6 -13l-178 -185l178 -185q6 -6 6 -13q0 -9 -11 -9z" />
    <glyph glyph-name="guilsinglright" unicode="&#x203a;" horiz-adv-x="354" 
d="M313 249l-169 -169q-10 -10 -21 -10h-58q-11 0 -11 9q0 7 6 13l178 185l-178 185q-6 6 -6 13q0 9 11 9h58q11 0 21 -10l169 -169q11 -11 11 -28t-11 -28z" />
    <glyph glyph-name="endash" unicode="&#x2013;" horiz-adv-x="425" 
d="M383 263q0 -17 -19 -17h-302q-19 0 -19 17v39q0 18 19 18h302q19 0 19 -18v-39z" />
    <glyph glyph-name="dagger" unicode="&#x2020;" horiz-adv-x="404" 
d="M367 495q0 -16 -19 -16h-109v-459q0 -20 -16 -20h-57q-16 0 -16 20v459h-94q-19 0 -19 16v45q0 15 19 15h94v178q0 19 17 19h56q16 0 16 -19v-178h109q19 0 19 -15v-45z" />
    <glyph glyph-name="daggerdbl" unicode="&#x2021;" horiz-adv-x="404" 
d="M367 285q0 -16 -19 -16h-109v-249q0 -20 -16 -20h-57q-16 0 -16 20v249h-94q-19 0 -19 16v45q0 15 19 15h94v134h-94q-19 0 -19 16v45q0 15 19 15h94v178q0 19 17 19h56q16 0 16 -19v-178h109q19 0 19 -15v-45q0 -16 -19 -16h-109v-134h109q19 0 19 -15v-45z" />
    <glyph glyph-name="paragraph" unicode="&#xb6;" horiz-adv-x="622" 
d="M557 -176q0 -19 -17 -19h-23q-17 0 -17 19v865h-58v-865q0 -19 -17 -19h-23q-17 0 -17 19v439h-104q-106 0 -170 58q-66 59 -66 165v34q0 106 66 166q64 57 170 57h260q16 0 16 -19v-900z" />
    <glyph glyph-name="quotedblright" unicode="&#x201d;" horiz-adv-x="336" 
d="M306 734l-61 -189q-5 -19 -19 -19h-38q-9 0 -9 10q0 6 1 9l37 189q4 19 20 19h59q11 0 11 -11q0 -5 -1 -8zM156 734l-61 -189q-5 -19 -19 -19h-38q-9 0 -9 10q0 6 1 9l37 189q4 19 20 19h59q11 0 11 -11q0 -5 -1 -8z" />
    <glyph glyph-name="guillemotright" unicode="&#xbb;" horiz-adv-x="614" 
d="M573 249l-169 -169q-10 -10 -21 -10h-58q-11 0 -11 9q0 7 6 13l178 185l-178 185q-6 6 -6 13q0 9 11 9h58q11 0 21 -10l169 -169q11 -11 11 -28t-11 -28zM313 249l-169 -169q-10 -10 -21 -10h-58q-11 0 -11 9q0 7 6 13l178 185l-178 185q-6 6 -6 13q0 9 11 9h58
q11 0 21 -10l169 -169q11 -11 11 -28t-11 -28z" />
    <glyph glyph-name="perthousand" unicode="&#x2030;" horiz-adv-x="1134" 
d="M1089 155q0 -162 -134 -162q-135 0 -135 162v93q0 162 135 162q134 0 134 -162v-93zM749 155q0 -162 -134 -162q-135 0 -135 162v93q0 162 135 162q134 0 134 -162v-93zM645 724l-418 -708q-11 -20 -22 -20h-52q-8 0 -8 6t5 14l418 708q11 19 23 19h51q8 0 8 -6
q0 -3 -5 -13zM314 496q0 -162 -134 -162q-135 0 -135 162v93q0 161 135 161q134 0 134 -161v-93zM1027 248q0 105 -72 105q-73 0 -73 -105v-93q0 -105 73 -105q72 0 72 105v93zM687 248q0 105 -72 105q-73 0 -73 -105v-93q0 -105 73 -105q72 0 72 105v93zM252 589
q0 105 -72 105q-73 0 -73 -105v-93q0 -105 73 -105q72 0 72 105v93z" />
    <glyph glyph-name="questiondown" unicode="&#xbf;" horiz-adv-x="446" 
d="M328 438q0 -20 -20 -20h-48q-19 0 -19 20v93q0 19 19 19h48q20 0 20 -19v-93zM406 -165q0 -20 -17 -23q-67 -13 -136 -13q-93 0 -143 32q-57 38 -57 119v12q0 38 17 72q20 38 74 99l45 51q32 37 40 51q13 22 13 52v49q0 19 20 19h44q19 0 19 -19v-49q0 -79 -66 -151
l-46 -51q-62 -68 -62 -123v-12q0 -72 102 -72q33 0 69 3l69 6q15 0 15 -17v-35z" />
    <glyph glyph-name="emdash" unicode="&#x2014;" horiz-adv-x="556" 
d="M513 263q0 -17 -19 -17h-432q-19 0 -19 17v39q0 18 19 18h432q19 0 19 -18v-39z" />
    <glyph glyph-name="AE" unicode="&#xc6;" horiz-adv-x="948" 
d="M893 17q0 -12 -10 -14q-22 -3 -72 -6q-58 -3 -123 -3q-213 0 -213 186v136h-306v-296q0 -20 -18 -20h-55q-18 0 -18 20v523q0 112 54 161q50 46 161 46h58q116 0 167 -51q50 53 170 53q65 0 123 -3q50 -3 72 -6q10 -2 10 -14v-47q0 -12 -11 -12h-193q-75 0 -98 -21
q-25 -22 -25 -93v-129h307q20 0 20 -20v-38q0 -20 -20 -20h-307v-169q0 -60 22 -80q25 -24 101 -24h193q11 0 11 -12v-47zM475 556q0 67 -29 92q-27 22 -95 22h-58q-70 0 -96 -24q-28 -27 -28 -103v-147h306v160z" />
    <glyph glyph-name="ordfeminine" unicode="&#xaa;" horiz-adv-x="302" 
d="M264 450q0 -13 -10 -16q-45 -13 -98 -13q-126 0 -126 98v7q0 92 142 92h32v13q0 63 -54 63q-23 0 -47 -2l-39 -3q-14 0 -14 13v21q0 12 15 14l18 3q10 2 19 3q24 3 48 3q114 0 114 -115v-181zM205 576h-32q-85 -3 -85 -50v-7q0 -51 68 -51q13 0 28 2q5 0 11 1l10 2v103z
" />
    <glyph glyph-name="Oslash" unicode="&#xd8;" horiz-adv-x="661" 
d="M630 727l-71 -98q42 -75 42 -193v-129q0 -160 -76 -240q-70 -74 -194 -74q-114 0 -183 63l-31 -44q-14 -19 -25 -19h-53q-11 0 -11 11q0 4 3 8l72 100q-43 74 -43 195v129q0 159 77 240q70 74 194 74q116 0 184 -64l29 41q14 19 26 19h52q11 0 11 -11q0 -3 -3 -8z
M462 613q-45 55 -131 55t-130 -53q-49 -58 -49 -179v-129q0 -59 13 -108zM509 436q0 63 -12 106l-297 -414q44 -53 131 -53q86 0 130 53q48 57 48 179v129z" />
    <glyph glyph-name="OE" unicode="&#x152;" horiz-adv-x="983" 
d="M928 15q0 -12 -10 -14q-22 -3 -72 -6q-58 -3 -123 -3q-147 0 -191 83q-70 -82 -201 -82q-124 0 -194 74q-77 81 -77 240v129q0 159 77 240q70 74 194 74q131 0 201 -82q45 82 191 82q65 0 123 -3q50 -3 72 -6q10 -2 10 -14v-47q0 -12 -11 -12h-193q-76 0 -101 -23
q-22 -21 -22 -81v-139h307q20 0 20 -20v-38q0 -20 -20 -20h-307v-169q0 -60 22 -80q25 -24 101 -24h193q11 0 11 -12v-47zM510 440q0 104 -36 160q-44 68 -143 68q-86 0 -131 -53q-48 -58 -48 -179v-129q0 -121 48 -179q45 -53 131 -53q99 0 143 69q36 57 36 162v134z" />
    <glyph glyph-name="ordmasculine" unicode="&#xba;" horiz-adv-x="322" 
d="M291 566q0 -145 -129 -145q-130 0 -130 145v35q0 145 130 145q129 0 129 -145v-35zM230 601q0 92 -68 92q-70 0 -70 -92v-35q0 -93 70 -93q68 0 68 93v35z" />
    <glyph glyph-name="ae" unicode="&#xe6;" horiz-adv-x="853" 
d="M803 269q0 -22 -19 -22h-333v-32q0 -148 146 -148q40 0 90 4q42 4 81 10h5q16 0 16 -14v-34q0 -19 -20 -23q-88 -17 -177 -17q-117 0 -173 59q-68 -59 -180 -59q-81 0 -133 39q-58 44 -58 126v9q0 84 54 122q56 40 187 40h75v40q0 113 -108 113q-44 0 -86 -2l-72 -6
q-18 0 -18 16v35q0 16 21 19q36 6 67 9q41 4 88 4q119 0 166 -70q59 70 163 70q106 0 164 -70q54 -65 54 -176v-42zM716 319q0 163 -131 163q-134 0 -134 -163v-5h265v5zM364 265h-75q-89 0 -121 -22q-31 -21 -31 -76v-9q0 -50 34 -74q29 -21 80 -21q72 0 113 31v171z" />
    <glyph glyph-name="oslash" unicode="&#xf8;" horiz-adv-x="545" 
d="M524 564l-70 -94q41 -62 41 -157v-76q0 -113 -56 -177q-59 -67 -167 -67q-85 0 -139 42l-44 -60q-5 -6 -8 -8t-8 -2h-49q-8 0 -8 8q0 7 4 11l71 96q-41 62 -41 157v76q0 113 56 177q58 67 166 67q86 0 140 -42l42 58q5 6 8 8t8 2h50q8 0 8 -8q0 -7 -4 -11zM362 449
q-34 31 -90 31q-134 0 -134 -167v-76q0 -46 10 -79zM407 313q0 42 -11 78l-214 -290q33 -31 90 -31q135 0 135 167v76z" />
    <glyph glyph-name="oe" unicode="&#x153;" horiz-adv-x="901" 
d="M849 269q0 -22 -19 -22h-333v-12q0 -168 146 -168q40 0 90 4q42 4 81 10h5q16 0 16 -14v-34q0 -19 -20 -23q-88 -17 -172 -17q-59 0 -105 18q-52 22 -84 66q-59 -84 -180 -84q-108 0 -166 67q-56 64 -56 177v76q0 113 56 177q58 67 166 67q122 0 181 -86q60 86 176 86
q106 0 164 -70q54 -65 54 -176v-42zM762 319q0 163 -131 163q-134 0 -134 -163v-5h265v5zM410 313q0 167 -136 167q-134 0 -134 -167v-76q0 -167 134 -167q136 0 136 167v76z" />
    <glyph glyph-name="germandbls" unicode="&#xdf;" horiz-adv-x="581" 
d="M527 215q0 -112 -71 -170q-63 -52 -166 -52q-18 0 -48 3q-20 2 -20 19v41q0 11 11 11l43 -1q78 0 117 31q45 35 45 118v14q0 128 -155 128h-37q-20 0 -20 20v29q0 20 20 20h37q71 0 108 37q32 33 32 85v12q0 121 -131 121q-138 0 -138 -167v-493q0 -21 -18 -21h-53
q-18 0 -18 21v493q0 244 227 244q100 0 157 -47q62 -52 62 -151v-12q0 -52 -31 -95q-29 -39 -74 -59q121 -43 121 -165v-14z" />
    <glyph glyph-name="trademark" unicode="&#x2122;" horiz-adv-x="790" 
d="M747 346q0 -10 -10 -10h-41q-10 0 -10 10v240q0 63 -16 81q-20 22 -89 22v-343q0 -10 -10 -10h-42q-10 0 -10 10v343q-29 0 -58 -2q-23 -1 -48 -4v-337q0 -10 -9 -10h-41q-10 0 -10 10v371q0 18 15 19q97 10 182 10q110 0 150 -29q47 -34 47 -131v-240zM317 703
q0 -14 -17 -14h-97v-337q0 -16 -16 -16h-32q-15 0 -15 16v337h-99q-16 0 -16 14v25q0 15 16 15h259q17 0 17 -15v-25z" />
    <glyph glyph-name="registered" unicode="&#xae;" horiz-adv-x="598" 
d="M490 294q-79 -78 -191 -78t-190 78q-79 78 -79 190t79 190q78 79 190 79t191 -79q79 -78 79 -190t-79 -190zM461 646q-67 67 -162 67q-94 0 -161 -67q-66 -67 -66 -162q0 -94 66 -161q67 -66 161 -66q95 0 162 66q67 67 67 161q0 95 -67 162zM413 318h-28q-8 0 -12 8
l-81 128l-10 3h-42v-124q0 -6 -4 -10q-4 -5 -10 -5h-25q-6 0 -9 5q-4 4 -4 10v302q0 21 18 22q5 1 15 1q9 1 20 1q22 1 41 1q131 0 131 -101v-4q0 -71 -67 -90l77 -125q2 -4 2 -9q0 -13 -12 -13zM363 559q0 54 -78 54h-46v-112h24q1 -1 2 -1h20q78 0 78 55v4z" />
    <glyph glyph-name="copyright" unicode="&#xa9;" horiz-adv-x="750" 
d="M604 145q-96 -95 -230 -95t-229 95t-95 229q0 135 95 231t229 96t230 -96q96 -97 96 -231t-96 -229zM574 574q-83 83 -200 83t-199 -83t-82 -200t82 -198q82 -82 199 -82t200 82q82 81 82 198t-82 200zM476 183q0 -7 -5 -11q-4 -3 -10 -4l-14 -2q-9 -2 -20 -3
q-26 -2 -57 -2q-69 0 -109 42q-44 46 -44 141v66q0 95 44 142q40 42 109 42q30 0 57 -3l20 -2q7 -2 14 -3q6 -1 10 -4q5 -3 5 -10v-28q0 -7 -4 -10q-3 -2 -9 -2h-3q-5 0 -8 1q-5 0 -10 1q-11 1 -21 1q-27 2 -51 2q-41 0 -64 -27q-27 -32 -27 -100v-66q0 -68 27 -99
q23 -27 64 -27q23 0 50 2l42 3q6 0 9 -2q5 -4 5 -11v-27z" />
    <glyph glyph-name="Ccedilla" unicode="&#xc7;" horiz-adv-x="545" 
d="M510 26q0 -16 -20 -20q-35 -7 -67 -9q-40 -4 -99 -4q-50 0 -93 14q-49 16 -85 49q-40 38 -62 95q-24 64 -24 151v139q0 88 24 152q21 57 62 94q36 33 85 49q43 14 93 14q42 0 91 -5q19 -2 41 -6l36 -5q16 -2 16 -13v-51q0 -11 -12 -11l-79 6q-54 3 -92 3q-80 0 -124 -50
q-50 -57 -50 -177v-139q0 -119 50 -176q44 -51 124 -51q38 0 90 3l79 5q16 0 16 -16v-41zM377 -47l-113 -126q-13 -15 -23 -15h-54q-9 0 -9 7q0 4 4 10l97 124q12 15 25 15h66q11 0 11 -7q0 -4 -4 -8z" />
    <glyph glyph-name="aring" unicode="&#xe5;" horiz-adv-x="541" 
d="M473 39q0 -18 -21 -23q-94 -23 -184 -23q-109 0 -165 67q-53 64 -53 180v70q0 116 53 180q56 67 165 67q90 0 184 -23q21 -5 21 -23v-472zM385 473q-54 10 -117 10q-71 0 -102 -47q-28 -41 -28 -126v-70q0 -84 28 -126q31 -47 102 -47q61 0 117 10v396zM349 632
q-30 -30 -72 -30t-72 30q-30 29 -30 71t30 72t72 30t72 -30q29 -30 29 -72t-29 -71zM277 756q-52 0 -52 -52q0 -53 52 -53q53 0 53 53q0 52 -53 52z" />
    <glyph glyph-name="ccedilla" unicode="&#xe7;" horiz-adv-x="452" 
d="M408 26q0 -18 -20 -22q-60 -11 -125 -11q-101 0 -157 66q-56 65 -56 177v78q0 112 55 177q57 66 158 66q65 0 125 -11q20 -4 20 -22v-36q0 -15 -17 -15h-4q-62 7 -124 7q-125 0 -125 -166v-78q0 -166 125 -166q62 0 124 7h4q17 0 17 -15v-36zM318 -47l-113 -126
q-13 -15 -23 -15h-54q-9 0 -9 7q0 6 4 10l97 124q12 15 25 15h66q11 0 11 -7q0 -4 -4 -8z" />
    <glyph glyph-name="eacute" unicode="&#xe9;" horiz-adv-x="544" 
d="M494 269q0 -22 -19 -22h-335v-12q0 -168 146 -168q40 0 90 4q42 4 81 10h5q16 0 16 -14v-34q0 -19 -20 -23q-88 -17 -172 -17q-46 0 -85 12q-44 13 -75 40q-74 63 -74 195v70q0 110 57 177q60 70 165 70q106 0 165 -70q55 -66 55 -176v-42zM405 319q0 161 -131 161
q-134 0 -134 -161v-5h265v5zM430 764l-113 -126q-13 -15 -23 -15h-54q-9 0 -9 7q0 6 4 10l98 124q12 15 24 15h66q11 0 11 -7q0 -4 -4 -8z" />
    <glyph glyph-name="udieresis" unicode="&#xfc;" horiz-adv-x="557" 
d="M489 228q0 -69 -23 -120q-19 -43 -54 -71q-30 -24 -68 -35q-31 -9 -61 -9h-9q-30 0 -61 9q-38 11 -67 35q-36 28 -55 71q-23 51 -23 120v302q0 20 18 20h52q18 0 18 -20v-302q0 -85 34 -124q29 -34 84 -34h9q55 0 84 34q34 39 34 124v302q0 20 18 20h52q18 0 18 -20v-302
zM405 660q0 -19 -20 -19h-39q-20 0 -20 19v81q0 20 20 20h39q20 0 20 -20v-81zM230 660q0 -19 -20 -19h-39q-20 0 -20 19v81q0 20 20 20h39q20 0 20 -20v-81z" />
  </font>
</defs>
</svg>
