<?xml version="1.0" encoding="utf-8"?>
<!-- Generator: Adobe Illustrator 16.0.0, SVG Export Plug-In . SVG Version: 6.00 Build 0)  -->
<!DOCTYPE svg PUBLIC "-//W3C//DTD SVG 1.1//EN" "http://www.w3.org/Graphics/SVG/1.1/DTD/svg11.dtd">
<svg version="1.1" id="Layer_1" xmlns="http://www.w3.org/2000/svg" xmlns:xlink="http://www.w3.org/1999/xlink" x="0px" y="0px"
	 width="459px" height="145px" viewBox="0 0 459 145" enable-background="new 0 0 459 145" xml:space="preserve">
<g>
	<g>
		<g>
			<polygon fill="#D12149" points="24.098,61.851 5.676,72.485 56.408,101.785 65.576,85.911 42.337,72.49 42.337,72.49 			"/>
			<polygon fill="#00B49C" points="104.789,108.557 81.449,95.078 72.282,110.951 123.115,140.309 123.124,72.541 104.795,61.912 
							"/>
			<polygon fill="#FFD300" points="82.779,49.147 104.697,36.496 104.798,36.439 104.795,61.912 123.124,72.541 123.133,4.691 
				123.033,4.748 64.486,38.541 			"/>
		</g>
		<polygon fill="#F89C1B" points="64.953,38.271 24.098,61.851 42.337,72.49 83.246,48.877 		"/>
	</g>
	<g>
		<path fill="#FFFFFF" d="M162.728,58.316h-14.444c-4.254,0-6.773-1.568-6.773-6.271V22.99c0-4.703,2.52-6.271,6.773-6.271h14.444
			c0.616,0,1.063,0.393,1.063,0.953v0.447c0,0.56-0.447,0.896-1.063,0.896h-14.444c-2.688,0-4.311,0.504-4.311,3.976v12.316h18.755
			c0.616,0,1.063,0.336,1.063,0.896v0.56c0,0.561-0.447,0.951-1.063,0.951h-18.755v14.332c0,3.472,1.623,3.976,4.311,3.976h14.444
			c0.616,0,1.063,0.336,1.063,0.896v0.448C163.791,57.923,163.344,58.316,162.728,58.316z"/>
		<path fill="#FFFFFF" d="M196.931,58.316h-0.56c-0.561,0-0.951-0.504-0.951-1.064V31.218c0-8.396-2.576-12.54-10.414-12.54
			c-4.367,0-9.069,0.448-11.197,0.672v37.901c0,0.561-0.391,1.064-1.007,1.064h-0.504c-0.616,0-0.952-0.504-0.952-1.064V18.398
			c0-0.672,0.336-0.951,0.784-1.008c3.247-0.447,8.397-0.951,12.876-0.951c9.126,0,12.877,5.318,12.877,14.779v26.033
			C197.883,57.812,197.49,58.316,196.931,58.316z"/>
		<path fill="#FFFFFF" d="M229.958,19.294c-0.112,0-0.224,0-0.336,0c-3.976-0.393-5.767-0.561-9.854-0.561
			c-5.599,0-11.589,3.136-11.589,15.34v6.942c0,10.581,4.479,15.284,11.589,15.284c4.759,0,7.614-0.393,8.51-0.504V37.994
			c0-0.616,0.392-1.064,0.952-1.064h0.56c0.56,0,0.952,0.448,0.952,1.064V56.86c0,0.56-0.449,1.008-0.952,1.063
			c-2.688,0.336-5.263,0.729-10.021,0.729c-7.95,0-14.052-5.264-14.052-17.636v-6.942c0-13.996,7.502-17.635,14.052-17.635
			c5.038,0,7.67,0.279,10.077,0.561c0.504,0.055,0.951,0.223,0.951,0.895v0.561C230.797,19.07,230.574,19.294,229.958,19.294z"/>
		<path fill="#FFFFFF" d="M241.823,58.316h-0.56c-0.561,0-0.952-0.504-0.952-1.064V17.783c0-0.561,0.392-1.064,0.952-1.064h0.56
			c0.56,0,0.952,0.504,0.952,1.064v39.469C242.775,57.812,242.383,58.316,241.823,58.316z"/>
		<path fill="#FFFFFF" d="M277.876,58.316h-0.56c-0.561,0-0.951-0.504-0.951-1.064V31.218c0-8.396-2.576-12.54-10.414-12.54
			c-4.367,0-9.069,0.448-11.197,0.672v37.901c0,0.561-0.391,1.064-1.007,1.064h-0.504c-0.616,0-0.952-0.504-0.952-1.064V18.398
			c0-0.672,0.336-0.951,0.784-1.008c3.247-0.447,8.397-0.951,12.876-0.951c9.126,0,12.877,5.318,12.877,14.779v26.033
			C278.828,57.812,278.436,58.316,277.876,58.316z"/>
		<path fill="#FFFFFF" d="M308.999,58.316h-14.444c-4.254,0-6.773-1.568-6.773-6.271V22.99c0-4.703,2.52-6.271,6.773-6.271h14.444
			c0.616,0,1.063,0.393,1.063,0.953v0.447c0,0.56-0.447,0.896-1.063,0.896h-14.444c-2.688,0-4.311,0.504-4.311,3.976v12.316h18.755
			c0.616,0,1.063,0.336,1.063,0.896v0.56c0,0.561-0.447,0.951-1.063,0.951h-18.755v14.332c0,3.472,1.623,3.976,4.311,3.976h14.444
			c0.616,0,1.063,0.336,1.063,0.896v0.448C310.063,57.923,309.615,58.316,308.999,58.316z"/>
		<path fill="#FFFFFF" d="M338.836,58.316h-14.444c-4.255,0-6.774-1.568-6.774-6.271V22.99c0-4.703,2.52-6.271,6.774-6.271h14.444
			c0.615,0,1.063,0.393,1.063,0.953v0.447c0,0.56-0.448,0.896-1.063,0.896h-14.444c-2.688,0-4.312,0.504-4.312,3.976v12.316h18.756
			c0.615,0,1.063,0.336,1.063,0.896v0.56c0,0.561-0.448,0.951-1.063,0.951H320.08v14.332c0,3.472,1.624,3.976,4.312,3.976h14.444
			c0.615,0,1.063,0.336,1.063,0.896v0.448C339.899,57.923,339.451,58.316,338.836,58.316z"/>
		<path fill="#FFFFFF" d="M373.039,58.316h-0.729c-0.279,0-0.672-0.28-0.84-0.504L359.547,39.56c-0.336,0-0.616,0-0.896,0
			c-0.504,0-0.896,0-1.512,0c-2.184,0-7.222-0.055-7.222-0.055v17.746c0,0.561-0.392,1.064-0.952,1.064h-0.559
			c-0.561,0-0.953-0.504-0.953-1.064V17.726c0-0.504,0.449-1.008,0.953-1.063c1.959-0.113,6.326-0.225,8.732-0.225
			c10.078,0,15.229,2.855,15.229,11.421v0.28c0,6.83-3.416,10.021-10.021,11.141l11.309,17.411c0.168,0.28,0.28,0.56,0.28,0.784
			C373.935,57.923,373.654,58.316,373.039,58.316z M369.904,27.86c0-6.998-4.424-9.069-12.766-9.069
			c-2.352,0-5.542,0.056-7.222,0.224v18.14c1.512,0,5.599,0.056,7.222,0.056c8.678,0,12.766-1.903,12.766-9.069V27.86z"/>
		<path fill="#FFFFFF" d="M383,58.316h-0.56c-0.56,0-0.952-0.504-0.952-1.064V17.783c0-0.561,0.393-1.064,0.952-1.064H383
			c0.561,0,0.952,0.504,0.952,1.064v39.469C383.952,57.812,383.561,58.316,383,58.316z"/>
		<path fill="#FFFFFF" d="M419.053,58.316h-0.559c-0.561,0-0.952-0.504-0.952-1.064V31.218c0-8.396-2.575-12.54-10.413-12.54
			c-4.367,0-9.07,0.448-11.197,0.672v37.901c0,0.561-0.392,1.064-1.008,1.064h-0.504c-0.615,0-0.951-0.504-0.951-1.064V18.398
			c0-0.672,0.336-0.951,0.783-1.008c3.248-0.447,8.398-0.951,12.877-0.951c9.125,0,12.877,5.318,12.877,14.779v26.033
			C420.006,57.812,419.613,58.316,419.053,58.316z"/>
		<path fill="#FFFFFF" d="M452.08,19.294c-0.111,0-0.224,0-0.336,0c-3.975-0.393-5.766-0.561-9.854-0.561
			c-5.598,0-11.588,3.136-11.588,15.34v6.942c0,10.581,4.479,15.284,11.588,15.284c4.76,0,7.614-0.393,8.51-0.504V37.994
			c0-0.616,0.393-1.064,0.952-1.064h0.56c0.561,0,0.952,0.448,0.952,1.064V56.86c0,0.56-0.448,1.008-0.952,1.063
			c-2.688,0.336-5.262,0.729-10.021,0.729c-7.949,0-14.052-5.264-14.052-17.636v-6.942c0-13.996,7.502-17.635,14.052-17.635
			c5.039,0,7.67,0.279,10.078,0.561c0.504,0.055,0.951,0.223,0.951,0.895v0.561C452.92,19.07,452.696,19.294,452.08,19.294z"/>
		<path fill="#FFFFFF" d="M154.722,125.826c-8.341,0-14.332-5.15-14.332-17.635v-6.941c0-12.485,5.991-17.635,14.332-17.635
			c8.342,0,14.332,5.15,14.332,17.635v6.941C169.054,120.676,163.063,125.826,154.722,125.826z M166.59,101.25
			c0-11.421-5.094-15.284-11.868-15.284s-11.868,3.862-11.868,15.284v6.941c0,11.422,5.094,15.283,11.868,15.283
			s11.868-3.861,11.868-15.283V101.25z"/>
		<path fill="#FFFFFF" d="M186.014,125.826c-3.639,0-6.438-0.391-8.678-0.615c-0.504-0.057-1.008-0.336-1.008-0.896v-0.727
			c0-0.561,0.504-0.729,1.063-0.729c0.056,0,0.168,0,0.224,0c2.912,0.225,5.318,0.615,8.398,0.615c8.453,0,10.413-3.75,10.413-8.34
			c0-4.145-2.407-5.6-8.622-9.463l-3.527-2.184c-5.094-3.135-8.789-5.822-8.789-10.805c0-7.334,6.551-9.068,13.101-9.068
			c2.967,0,5.935,0.336,8.341,0.56c0.561,0.056,0.953,0.336,0.953,0.84v0.728c0,0.561-0.449,0.783-1.064,0.783
			c-1.231,0-5.431-0.559-8.285-0.559c-7.391,0-10.525,2.127-10.525,6.773c0,3.471,2.575,5.543,7.558,8.567l3.583,2.182
			c6.215,3.752,9.854,6.494,9.854,11.646C199.002,120.229,196.818,125.826,186.014,125.826z"/>
		<path fill="#FFFFFF" d="M215.682,125.826c-3.639,0-6.438-0.391-8.677-0.615c-0.504-0.057-1.008-0.336-1.008-0.896v-0.727
			c0-0.561,0.504-0.729,1.063-0.729c0.057,0,0.168,0,0.225,0c2.91,0.225,5.318,0.615,8.396,0.615c8.455,0,10.414-3.75,10.414-8.34
			c0-4.145-2.408-5.6-8.622-9.463l-3.526-2.184c-5.096-3.135-8.79-5.822-8.79-10.805c0-7.334,6.55-9.068,13.101-9.068
			c2.967,0,5.934,0.336,8.342,0.56c0.56,0.056,0.951,0.336,0.951,0.84v0.728c0,0.561-0.447,0.783-1.063,0.783
			c-1.231,0-5.431-0.559-8.286-0.559c-7.39,0-10.524,2.127-10.524,6.773c0,3.471,2.575,5.543,7.558,8.567l3.583,2.182
			c6.214,3.752,9.854,6.494,9.854,11.646C228.671,120.229,226.487,125.826,215.682,125.826z"/>
		<path fill="#FFFFFF" d="M260.129,107.912c-2.184,0-4.535-0.111-6.103-0.225v16.74c0,0.559-0.392,1.063-0.952,1.063h-0.559
			c-0.561,0-0.953-0.504-0.953-1.063V84.958c0-0.504,0.449-1.008,0.953-1.064c1.959-0.111,5.206-0.279,7.613-0.279
			c9.518,0,15.228,3.303,15.228,11.364v0.952C275.356,104.721,269.646,107.912,260.129,107.912z M272.894,94.979
			c0-6.942-4.423-9.181-12.765-9.181c-2.352,0-4.479,0.055-6.103,0.168v19.538c1.735,0.113,4.199,0.225,6.103,0.225
			c8.678,0,12.765-2.688,12.765-9.797V94.979z"/>
		<path fill="#FFFFFF" d="M295.004,125.826c-8.342,0-14.332-5.15-14.332-17.635v-6.941c0-12.485,5.99-17.635,14.332-17.635
			s14.332,5.15,14.332,17.635v6.941C309.336,120.676,303.346,125.826,295.004,125.826z M306.873,101.25
			c0-11.421-5.095-15.284-11.869-15.284c-6.773,0-11.869,3.862-11.869,15.284v6.941c0,11.422,5.096,15.283,11.869,15.283
			c6.774,0,11.869-3.861,11.869-15.283V101.25z"/>
		<path fill="#FFFFFF" d="M342.755,125.49h-0.728c-0.279,0-0.672-0.279-0.84-0.504l-11.925-18.25c-0.336,0-0.616,0-0.896,0
			c-0.504,0-0.896,0-1.512,0c-2.184,0-7.223-0.057-7.223-0.057v17.748c0,0.559-0.391,1.063-0.951,1.063h-0.56
			c-0.56,0-0.952-0.504-0.952-1.063V84.902c0-0.504,0.448-1.008,0.952-1.063c1.96-0.112,6.326-0.224,8.733-0.224
			c10.077,0,15.229,2.855,15.229,11.42v0.28c0,6.83-3.416,10.021-10.021,11.142l11.309,17.41c0.168,0.279,0.279,0.561,0.279,0.783
			C343.65,125.1,343.371,125.49,342.755,125.49z M339.62,95.035c0-6.998-4.423-9.068-12.765-9.068c-2.352,0-5.543,0.055-7.223,0.223
			v18.139c1.512,0,5.6,0.057,7.223,0.057c8.678,0,12.765-1.904,12.765-9.07V95.035z"/>
		<path fill="#FFFFFF" d="M375.391,86.189h-11.98v38.239c0,0.559-0.393,1.063-0.952,1.063h-0.56c-0.561,0-0.952-0.504-0.952-1.063
			V86.189H348.91c-0.616,0-1.064-0.279-1.064-0.84v-0.503c0-0.56,0.448-0.952,1.064-0.952h26.48c0.615,0,1.063,0.393,1.063,0.952
			v0.503C376.454,85.91,376.006,86.189,375.391,86.189z"/>
		<path fill="#FFFFFF" d="M407.074,125.49h-0.56c-0.56,0-0.952-0.504-0.952-1.063v-18.42h-20.49v18.42
			c0,0.559-0.392,1.063-0.951,1.063h-0.561c-0.56,0-0.951-0.504-0.951-1.063V94.699c0-7.334,2.407-10.805,10.748-10.805h3.92
			c8.342,0,10.748,3.471,10.748,10.805v29.729C408.025,124.986,407.635,125.49,407.074,125.49z M405.563,94.699
			c0-6.382-1.791-8.51-8.285-8.51h-3.92c-6.494,0-8.285,2.128-8.285,8.51v8.903h20.49V94.699z"/>
		<path fill="#FFFFFF" d="M436.52,125.49h-12.765c-4.255,0-6.774-1.566-6.774-6.27V84.958c0-0.561,0.393-1.064,0.952-1.064h0.56
			c0.561,0,0.951,0.504,0.951,1.064v34.262c0,3.471,1.624,3.975,4.312,3.975h12.765c0.615,0,1.063,0.336,1.063,0.896v0.447
			C437.583,125.1,437.135,125.49,436.52,125.49z"/>
	</g>
</g>
</svg>
