<?xml version="1.0" encoding="utf-8"?>
<!-- Generator: Adobe Illustrator 16.0.0, SVG Export Plug-In . SVG Version: 6.00 Build 0)  -->
<!DOCTYPE svg PUBLIC "-//W3C//DTD SVG 1.1//EN" "http://www.w3.org/Graphics/SVG/1.1/DTD/svg11.dtd">
<svg version="1.1" id="Layer_1" xmlns="http://www.w3.org/2000/svg" xmlns:xlink="http://www.w3.org/1999/xlink" x="0px" y="0px"
	 width="454px" height="75.333px" viewBox="0 0 454 75.333" enable-background="new 0 0 454 75.333" xml:space="preserve">
<g>
	<g>
		<polygon fill="#D12149" points="12.012,33.023 3.978,37.661 26.103,50.438 30.1,43.515 19.966,37.662 19.966,37.662 		"/>
		<polygon fill="#00B49C" points="47.201,53.391 37.022,47.512 33.025,54.435 55.193,67.238 55.196,37.684 47.203,33.049 		"/>
		<polygon fill="#FFD300" points="37.603,27.483 47.161,21.965 47.205,21.94 47.203,33.049 55.196,37.684 55.2,8.095 55.157,8.12 
			29.625,22.858 		"/>
		<polygon fill="#F89C1B" points="29.829,22.739 12.012,33.023 19.966,37.662 37.806,27.366 		"/>
	</g>
	<g>
		<path fill="#FFFFFF" d="M78.301,51.708h-8.795c-2.59,0-4.125-0.954-4.125-3.817V30.199c0-2.863,1.534-3.817,4.125-3.817h8.795
			c0.375,0,0.647,0.238,0.647,0.579v0.272c0,0.342-0.272,0.546-0.647,0.546h-8.795c-1.636,0-2.625,0.307-2.625,2.42v7.499h11.419
			c0.375,0,0.647,0.205,0.647,0.546v0.341c0,0.341-0.272,0.58-0.647,0.58H66.881v8.727c0,2.113,0.988,2.42,2.625,2.42h8.795
			c0.375,0,0.647,0.205,0.647,0.545v0.273C78.948,51.469,78.676,51.708,78.301,51.708z"/>
		<path fill="#FFFFFF" d="M99.125,51.708h-0.341c-0.341,0-0.58-0.307-0.58-0.647V35.209c0-5.113-1.568-7.635-6.34-7.635
			c-2.659,0-5.522,0.271-6.817,0.408v23.078c0,0.341-0.239,0.647-0.614,0.647h-0.307c-0.375,0-0.58-0.307-0.58-0.647V27.404
			c0-0.409,0.205-0.579,0.477-0.614c1.977-0.271,5.113-0.579,7.84-0.579c5.557,0,7.84,3.238,7.84,8.999v15.852
			C99.704,51.402,99.465,51.708,99.125,51.708z"/>
		<path fill="#FFFFFF" d="M119.232,27.95c-0.068,0-0.137,0-0.205,0c-2.42-0.239-3.511-0.342-6-0.342
			c-3.409,0-7.056,1.909-7.056,9.34v4.228c0,6.442,2.727,9.306,7.056,9.306c2.897,0,4.636-0.238,5.181-0.307v-10.84
			c0-0.375,0.239-0.647,0.58-0.647h0.341c0.341,0,0.58,0.272,0.58,0.647v11.488c0,0.34-0.273,0.613-0.58,0.646
			c-1.636,0.205-3.204,0.443-6.102,0.443c-4.841,0-8.556-3.204-8.556-10.737v-4.228c0-8.521,4.568-10.737,8.556-10.737
			c3.068,0,4.67,0.171,6.136,0.341c0.307,0.034,0.58,0.137,0.58,0.545v0.342C119.744,27.813,119.607,27.95,119.232,27.95z"/>
		<path fill="#FFFFFF" d="M126.455,51.708h-0.341c-0.341,0-0.58-0.307-0.58-0.647V27.029c0-0.341,0.239-0.647,0.58-0.647h0.341
			c0.341,0,0.58,0.307,0.58,0.647v24.032C127.034,51.402,126.795,51.708,126.455,51.708z"/>
		<path fill="#FFFFFF" d="M148.406,51.708h-0.341c-0.341,0-0.58-0.307-0.58-0.647V35.209c0-5.113-1.568-7.635-6.34-7.635
			c-2.659,0-5.522,0.271-6.817,0.408v23.078c0,0.341-0.239,0.647-0.614,0.647h-0.307c-0.375,0-0.58-0.307-0.58-0.647V27.404
			c0-0.409,0.205-0.579,0.477-0.614c1.977-0.271,5.113-0.579,7.84-0.579c5.557,0,7.84,3.238,7.84,8.999v15.852
			C148.985,51.402,148.747,51.708,148.406,51.708z"/>
		<path fill="#FFFFFF" d="M167.354,51.708h-8.795c-2.591,0-4.124-0.954-4.124-3.817V30.199c0-2.863,1.533-3.817,4.124-3.817h8.795
			c0.375,0,0.647,0.238,0.647,0.579v0.272c0,0.342-0.272,0.546-0.647,0.546h-8.795c-1.636,0-2.624,0.307-2.624,2.42v7.499h11.419
			c0.375,0,0.647,0.205,0.647,0.546v0.341c0,0.341-0.272,0.58-0.647,0.58h-11.419v8.727c0,2.113,0.988,2.42,2.624,2.42h8.795
			c0.375,0,0.647,0.205,0.647,0.545v0.273C168.001,51.469,167.729,51.708,167.354,51.708z"/>
		<path fill="#FFFFFF" d="M185.519,51.708h-8.795c-2.59,0-4.124-0.954-4.124-3.817V30.199c0-2.863,1.534-3.817,4.124-3.817h8.795
			c0.375,0,0.648,0.238,0.648,0.579v0.272c0,0.342-0.273,0.546-0.648,0.546h-8.795c-1.636,0-2.624,0.307-2.624,2.42v7.499h11.419
			c0.375,0,0.648,0.205,0.648,0.546v0.341c0,0.341-0.273,0.58-0.648,0.58H174.1v8.727c0,2.113,0.988,2.42,2.624,2.42h8.795
			c0.375,0,0.648,0.205,0.648,0.545v0.273C186.167,51.469,185.894,51.708,185.519,51.708z"/>
		<path fill="#FFFFFF" d="M206.343,51.708H205.9c-0.17,0-0.408-0.171-0.511-0.307l-7.261-11.112c-0.205,0-0.375,0-0.546,0
			c-0.307,0-0.545,0-0.92,0c-1.329,0-4.397-0.035-4.397-0.035v10.807c0,0.341-0.238,0.647-0.58,0.647h-0.34
			c-0.342,0-0.58-0.307-0.58-0.647V26.995c0-0.307,0.272-0.613,0.58-0.647c1.192-0.068,3.852-0.137,5.317-0.137
			c6.136,0,9.272,1.739,9.272,6.954v0.17c0,4.159-2.08,6.103-6.103,6.784l6.886,10.601c0.103,0.171,0.17,0.342,0.17,0.479
			C206.888,51.469,206.718,51.708,206.343,51.708z M204.435,33.165c0-4.262-2.693-5.522-7.772-5.522
			c-1.433,0-3.375,0.034-4.397,0.137v11.044c0.92,0,3.408,0.035,4.397,0.035c5.283,0,7.772-1.16,7.772-5.523V33.165z"/>
		<path fill="#FFFFFF" d="M212.407,51.708h-0.341c-0.341,0-0.58-0.307-0.58-0.647V27.029c0-0.341,0.239-0.647,0.58-0.647h0.341
			c0.341,0,0.579,0.307,0.579,0.647v24.032C212.986,51.402,212.748,51.708,212.407,51.708z"/>
		<path fill="#FFFFFF" d="M234.358,51.708h-0.34c-0.342,0-0.58-0.307-0.58-0.647V35.209c0-5.113-1.568-7.635-6.341-7.635
			c-2.658,0-5.521,0.271-6.817,0.408v23.078c0,0.341-0.239,0.647-0.614,0.647h-0.307c-0.375,0-0.579-0.307-0.579-0.647V27.404
			c0-0.409,0.204-0.579,0.478-0.614c1.977-0.271,5.113-0.579,7.84-0.579c5.558,0,7.841,3.238,7.841,8.999v15.852
			C234.938,51.402,234.7,51.708,234.358,51.708z"/>
		<path fill="#FFFFFF" d="M254.465,27.95c-0.068,0-0.137,0-0.203,0c-2.422-0.239-3.512-0.342-6-0.342
			c-3.41,0-7.057,1.909-7.057,9.34v4.228c0,6.442,2.727,9.306,7.057,9.306c2.896,0,4.635-0.238,5.182-0.307v-10.84
			c0-0.375,0.238-0.647,0.578-0.647h0.342c0.34,0,0.58,0.272,0.58,0.647v11.488c0,0.34-0.273,0.613-0.58,0.646
			c-1.637,0.205-3.205,0.443-6.102,0.443c-4.842,0-8.557-3.204-8.557-10.737v-4.228c0-8.521,4.568-10.737,8.557-10.737
			c3.068,0,4.67,0.171,6.135,0.341c0.307,0.034,0.58,0.137,0.58,0.545v0.342C254.977,27.813,254.84,27.95,254.465,27.95z"/>
		<path fill="#FFFFFF" d="M277.811,51.913c-5.08,0-8.727-3.136-8.727-10.737v-4.228c0-7.602,3.646-10.737,8.727-10.737
			c5.078,0,8.727,3.136,8.727,10.737v4.228C286.538,48.777,282.889,51.913,277.811,51.913z M285.038,36.948
			c0-6.953-3.104-9.306-7.227-9.306c-4.125,0-7.229,2.353-7.229,9.306v4.228c0,6.954,3.104,9.306,7.229,9.306
			c4.123,0,7.227-2.352,7.227-9.306V36.948z"/>
		<path fill="#FFFFFF" d="M296.86,51.913c-2.215,0-3.92-0.238-5.283-0.375c-0.307-0.033-0.613-0.204-0.613-0.545v-0.443
			c0-0.341,0.307-0.443,0.648-0.443c0.033,0,0.102,0,0.137,0c1.771,0.137,3.238,0.375,5.111,0.375c5.148,0,6.342-2.283,6.342-5.078
			c0-2.523-1.467-3.41-5.25-5.762l-2.148-1.329c-3.102-1.909-5.352-3.546-5.352-6.579c0-4.466,3.988-5.522,7.977-5.522
			c1.807,0,3.613,0.204,5.08,0.341c0.34,0.034,0.58,0.205,0.58,0.512v0.443c0,0.34-0.273,0.477-0.648,0.477
			c-0.75,0-3.307-0.341-5.045-0.341c-4.5,0-6.408,1.296-6.408,4.125c0,2.113,1.568,3.374,4.602,5.216l2.182,1.329
			c3.783,2.284,6,3.954,6,7.091C304.77,48.504,303.44,51.913,296.86,51.913z"/>
		<path fill="#FFFFFF" d="M314.924,51.913c-2.217,0-3.92-0.238-5.285-0.375c-0.307-0.033-0.613-0.204-0.613-0.545v-0.443
			c0-0.341,0.307-0.443,0.648-0.443c0.033,0,0.102,0,0.137,0c1.771,0.137,3.238,0.375,5.113,0.375c5.146,0,6.34-2.283,6.34-5.078
			c0-2.523-1.465-3.41-5.25-5.762l-2.146-1.329c-3.104-1.909-5.352-3.546-5.352-6.579c0-4.466,3.988-5.522,7.977-5.522
			c1.807,0,3.613,0.204,5.078,0.341c0.342,0.034,0.58,0.205,0.58,0.512v0.443c0,0.34-0.273,0.477-0.648,0.477
			c-0.75,0-3.307-0.341-5.045-0.341c-4.5,0-6.408,1.296-6.408,4.125c0,2.113,1.568,3.374,4.602,5.216l2.182,1.329
			c3.783,2.284,6,3.954,6,7.091C322.833,48.504,321.502,51.913,314.924,51.913z"/>
		<path fill="#FFFFFF" d="M341.983,41.004c-1.328,0-2.76-0.068-3.715-0.136v10.192c0,0.341-0.238,0.647-0.58,0.647h-0.34
			c-0.342,0-0.58-0.307-0.58-0.647V27.029c0-0.308,0.273-0.614,0.58-0.647c1.193-0.068,3.17-0.171,4.635-0.171
			c5.795,0,9.273,2.011,9.273,6.92v0.579C351.256,39.062,347.778,41.004,341.983,41.004z M349.756,33.13
			c0-4.228-2.693-5.591-7.773-5.591c-1.432,0-2.727,0.035-3.715,0.103V39.54c1.057,0.068,2.557,0.136,3.715,0.136
			c5.285,0,7.773-1.636,7.773-5.966V33.13z"/>
		<path fill="#FFFFFF" d="M363.217,51.913c-5.08,0-8.727-3.136-8.727-10.737v-4.228c0-7.602,3.646-10.737,8.727-10.737
			c5.078,0,8.727,3.136,8.727,10.737v4.228C371.944,48.777,368.295,51.913,363.217,51.913z M370.444,36.948
			c0-6.953-3.102-9.306-7.227-9.306s-7.227,2.353-7.227,9.306v4.228c0,6.954,3.102,9.306,7.227,9.306s7.227-2.352,7.227-9.306
			V36.948z"/>
		<path fill="#FFFFFF" d="M392.29,51.708h-0.443c-0.17,0-0.408-0.171-0.512-0.307l-7.26-11.112c-0.205,0-0.375,0-0.547,0
			c-0.307,0-0.545,0-0.92,0c-1.328,0-4.396-0.035-4.396-0.035v10.807c0,0.341-0.238,0.647-0.58,0.647h-0.34
			c-0.342,0-0.58-0.307-0.58-0.647V26.995c0-0.307,0.271-0.613,0.58-0.647c1.191-0.068,3.852-0.137,5.316-0.137
			c6.137,0,9.273,1.739,9.273,6.954v0.17c0,4.159-2.08,6.103-6.104,6.784l6.887,10.601c0.102,0.171,0.17,0.342,0.17,0.479
			C392.834,51.469,392.665,51.708,392.29,51.708z M390.381,33.165c0-4.262-2.693-5.522-7.773-5.522
			c-1.432,0-3.375,0.034-4.396,0.137v11.044c0.92,0,3.408,0.035,4.396,0.035c5.283,0,7.773-1.16,7.773-5.523V33.165z"/>
		<path fill="#FFFFFF" d="M412.159,27.779h-7.295v23.282c0,0.341-0.238,0.647-0.58,0.647h-0.34c-0.342,0-0.58-0.307-0.58-0.647
			V27.779h-7.328c-0.375,0-0.648-0.171-0.648-0.512V26.96c0-0.341,0.273-0.579,0.648-0.579h16.123c0.375,0,0.648,0.238,0.648,0.579
			v0.307C412.807,27.608,412.534,27.779,412.159,27.779z"/>
		<path fill="#FFFFFF" d="M431.448,51.708h-0.34c-0.342,0-0.58-0.307-0.58-0.647V39.846h-12.477v11.215
			c0,0.341-0.238,0.647-0.578,0.647h-0.342c-0.34,0-0.58-0.307-0.58-0.647V32.959c0-4.465,1.467-6.578,6.545-6.578h2.387
			c5.08,0,6.545,2.113,6.545,6.578v18.102C432.028,51.402,431.79,51.708,431.448,51.708z M430.528,32.959
			c0-3.886-1.09-5.181-5.045-5.181h-2.387c-3.953,0-5.045,1.295-5.045,5.181v5.42h12.477V32.959z"/>
		<path fill="#FFFFFF" d="M449.375,51.708h-7.773c-2.59,0-4.123-0.954-4.123-3.817V27.029c0-0.341,0.238-0.647,0.578-0.647h0.342
			c0.34,0,0.58,0.307,0.58,0.647v20.862c0,2.113,0.988,2.42,2.623,2.42h7.773c0.375,0,0.646,0.205,0.646,0.545v0.273
			C450.022,51.469,449.75,51.708,449.375,51.708z"/>
	</g>
</g>
</svg>
